# xmcd CD database file
#
# Track frame offsets:
#	150
#	14460
#	38257
#	55090
#	78110
#	94240
#	108377
#	121635
#	136975
#	151725
#	212560
#	227270
#	242417
#	258032
#
# Disc length: 3631 seconds
#
# Revision: 0
# Processed by: cddbd v1.4PL0 Copyright (c) Steve Scherf et al.
# Submitted via: CDex 1.40Beta9
#
DISCID=920e2d0e
DTITLE=Robert Pete Williams - Blues Masters, vol 1
DYEAR=1900
DGENRE=Blues
TTITLE0=Doctor Blues
TTITLE1=Got On His Mind
TTITLE2=Meet Him Over In Paradise
TTITLE3=Goodbye Baby
TTITLE4=It's Gotta Be Jelly 'Cause Jam Don't Shake That Way
TTITLE5=She Walked Around With Her Mouth Poked
TTITLE6=I Need To Be Loved
TTITLE7=Blues Leave Me ALone
TTITLE8=Texas Blues
TTITLE9=Talkin' Blues
TTITLE10=Greyhound Bus
TTITLE11=Put On A Show
TTITLE12=Take It Along With You Everywhere You Go
TTITLE13=Late Night Boogie
EXTD=ID3G: 0
EXTT0=
EXTT1=
EXTT2=
EXTT3=
EXTT4=
EXTT5=
EXTT6=
EXTT7=
EXTT8=
EXTT9=
EXTT10=
EXTT11=
EXTT12=
EXTT13=
PLAYORDER=
